<svg width="22" height="6" viewBox="0 0 22 6" fill="none" xmlns="http://www.w3.org/2000/svg">
<path d="M19 5.66667C17.5272 5.66667 16.3333 4.47276 16.3333 3C16.3333 1.52724 17.5272 0.333336 19 0.333336C20.4727 0.333336 21.6666 1.52724 21.6666 3C21.6666 3.70725 21.3857 4.38552 20.8856 4.88562C20.3855 5.38572 19.7072 5.66667 19 5.66667ZM11 5.66667C9.52722 5.66667 8.33331 4.47276 8.33331 3C8.33331 1.52724 9.52722 0.333336 11 0.333336C12.4727 0.333336 13.6666 1.52724 13.6666 3C13.6666 3.70725 13.3857 4.38552 12.8856 4.88562C12.3855 5.38572 11.7072 5.66667 11 5.66667ZM2.99998 5.66667C1.52722 5.66667 0.333313 4.47276 0.333313 3C0.333313 1.52724 1.52722 0.333336 2.99998 0.333336C4.47274 0.333336 5.66665 1.52724 5.66665 3C5.66665 3.70725 5.38569 4.38552 4.8856 4.88562C4.3855 5.38572 3.70722 5.66667 2.99998 5.66667Z" fill="#29183B"/>
</svg>
